<?xml version="1.0" encoding="UTF-8"?>
<svg id="Layer_1" xmlns="http://www.w3.org/2000/svg" version="1.1" viewBox="0 0 304 40.6">
  <!-- Generator: Adobe Illustrator 30.2.1, SVG Export Plug-In . SVG Version: 2.1.1 Build 1)  -->
  <defs>
    <style>
      .st0 {
        fill: #0fc0f6;
      }

      .st1 {
        fill: #6667ed;
      }
    </style>
  </defs>
  <g>
    <path class="st0" d="M84.5,3.6h6.2c4.1,0,6.9.1,8.4.5,1.5.3,2.6,1.1,3.6,2.4.9,1.3,1.4,3.4,1.4,6.3,0,2.6-.3,4.4-1,5.3-.6.9-1.9,1.4-3.8,1.6,1.7.4,2.9,1,3.5,1.7s1,1.4,1.1,2,.2,2.3.2,5v8.8h-8.1v-11.2c0-1.8-.1-2.9-.4-3.3s-1-.6-2.2-.6v15.1h-8.7V3.6h-.2ZM93.2,9.3v7.5c1,0,1.7-.1,2.1-.4s.6-1.1.6-2.6v-1.8c0-1.1-.2-1.8-.6-2.1-.4-.5-1.1-.6-2.1-.6Z"/>
    <path class="st0" d="M122.4,3.6l5,33.6h-8.9l-.5-6h-3.1l-.5,6h-9l4.5-33.6c-.1,0,12.5,0,12.5,0ZM117.8,25.1c-.4-3.8-.9-8.5-1.3-14.1-.9,6.4-1.5,11.1-1.7,14.1h3Z"/>
    <path class="st0" d="M137.6,3.6v33.6h-8.7V3.6h8.7Z"/>
    <path class="st0" d="M159.6,13.7h-8.1v-2.5c0-1.2-.1-1.9-.3-2.2s-.5-.5-1-.5-.9.2-1.2.6c-.3.4-.4,1.1-.4,1.9,0,1.1.1,2,.4,2.5.3.6,1.1,1.3,2.5,2,3.9,2.3,6.3,4.2,7.3,5.7s1.5,3.9,1.5,7.1c0,2.4-.3,4.2-.8,5.3-.6,1.1-1.7,2.1-3.3,2.9-1.6.8-3.5,1.2-5.6,1.2-2.3,0-4.3-.4-6-1.3s-2.7-2-3.3-3.4c-.5-1.4-.8-3.3-.8-5.8v-2.2h8.1v4.1c0,1.3.1,2.1.3,2.4.2.4.6.5,1.2.5s1-.2,1.3-.7.4-1.1.4-2c0-2-.3-3.3-.8-3.9s-1.9-1.6-4.1-3.1-3.6-2.5-4.3-3.1-1.3-1.6-1.8-2.7c-.5-1.2-.7-2.6-.7-4.4,0-2.6.3-4.5,1-5.6s1.7-2.1,3.2-2.8,3.2-1,5.3-1c2.3,0,4.2.4,5.8,1.1,1.6.7,2.7,1.7,3.2,2.8.5,1.1.8,3,.8,5.7l.2,1.4h0Z"/>
    <path class="st0" d="M183.1,3.6v33.6h-8.7v-14.2h-2.6v14.1h-8.7V3.6h8.7v12h2.6V3.6s8.7,0,8.7,0Z"/>
    <path class="st0" d="M201.7,3.6l5,33.6h-8.9l-.5-6h-3.1l-.5,6h-9l4.5-33.6s12.5,0,12.5,0ZM197.1,25.1c-.4-3.8-.9-8.5-1.3-14.1-.9,6.4-1.5,11.1-1.7,14.1h3Z"/>
    <path class="st1" d="M235.7,3.6v33.6h-8.7v-14.2h-2.6v14.1h-8.7V3.6h8.7v12h2.6V3.6s8.7,0,8.7,0Z"/>
    <path class="st1" d="M259.2,23.2c0,3.4-.1,5.8-.2,7.2-.1,1.4-.7,2.7-1.5,3.8-.8,1.2-2,2-3.4,2.7-1.4.6-3.1.9-5,.9-1.8,0-3.4-.3-4.8-.9-1.4-.6-2.6-1.5-3.5-2.6-.9-1.2-1.4-2.5-1.6-3.8-.2-1.4-.2-3.8-.2-7.2v-5.8c0-3.4.1-5.8.2-7.2.1-1.4.7-2.7,1.5-3.8.8-1.2,2-2,3.4-2.7,1.4-.6,3.1-.9,5-.9,1.8,0,3.4.3,4.8.9,1.4.6,2.6,1.5,3.5,2.6.9,1.2,1.4,2.5,1.6,3.8.2,1.4.2,3.8.2,7.2v5.8ZM250.5,12.2c0-1.6-.1-2.6-.3-3-.2-.4-.5-.6-1.1-.6-.5,0-.8.2-1,.5s-.4,1.4-.4,3.1v15.7c0,1.9.1,3.2.2,3.6.1.5.5.7,1.1.7s1-.3,1.1-.8c.2-.5.2-1.8.2-3.7v-15.5h.2Z"/>
    <path class="st1" d="M281,13.7h-8.1v-2.5c0-1.2-.1-1.9-.3-2.2-.2-.3-.5-.5-1-.5s-.9.2-1.2.6c-.3.4-.4,1.1-.4,1.9,0,1.1.1,2,.4,2.5.3.6,1.1,1.3,2.5,2,3.9,2.3,6.3,4.2,7.3,5.7s1.5,3.9,1.5,7.1c0,2.4-.3,4.2-.8,5.3-.6,1.1-1.7,2.1-3.3,2.9s-3.5,1.2-5.6,1.2c-2.3,0-4.3-.4-6-1.3-1.7-.9-2.7-2-3.3-3.4-.5-1.4-.8-3.3-.8-5.8v-2.2h8.1v4.1c0,1.3.1,2.1.3,2.4.2.4.6.5,1.2.5s1-.2,1.3-.7.4-1.1.4-2c0-2-.3-3.3-.8-3.9s-1.9-1.6-4.1-3.1c-2.2-1.4-3.6-2.5-4.3-3.1s-1.3-1.6-1.8-2.7c-.5-1.2-.7-2.6-.7-4.4,0-2.6.3-4.5,1-5.6s1.7-2.1,3.2-2.8,3.2-1,5.3-1c2.3,0,4.2.4,5.8,1.1,1.6.7,2.7,1.7,3.2,2.8s.8,3,.8,5.7l.2,1.4h0Z"/>
    <path class="st1" d="M302,3.6v6.7h-5.2v26.8h-8.7V10.3h-5.2V3.6h19.1Z"/>
  </g>
  <g>
    <g>
      <path class="st1" d="M67.8,5.6h-10.7l-1.8,9.7h-8.7l2-9.7h-9.6c1.1.5,2.3,1.2,3.2,2.1,1.6,1.7,2.4,3.9,2.3,6.6v.1c0,.1-.3,2.3-1.7,4.6-1.1,1.9-3.2,4.1-7,5.1,1.3,1.6,3.5,4.6,6.8,10l2.2-9h8.2l-2,10.1h11.7c1.3,0,2.4-.9,2.6-2.1l5-24.2c.4-1.7-.8-3.3-2.5-3.3Z"/>
      <path class="st0" d="M9.1,20.3h16.4c7-1.3,5.3-8.4,0-8.4h-14.9l.8-4.3c.2-1.3,1.4-2.2,2.6-2.2h19.5s9.7-.1,9.9,8c0,.6-.1,1.3-.2,1.9-.6,2.2-2.6,7.3-9.3,8,0,0,2.8,2.6,8.3,11.9h-16.3l-3.7-8.8-.5.1-2,8.7h-10.5c-1.7,0-3-1.6-2.6-3.3l2.5-11.6Z"/>
    </g>
    <path class="st1" d="M37.8,2c0,.1,0,.3.1.4H13.5c-2.4,0-4.5,1.7-5,4.1l-2.8,13.4c-.1-.1-.2-.2-.4-.2h-.4l2.8-13.4c.6-2.7,3-4.7,5.8-4.7h24.5c-.1.1-.2.3-.2.4Z"/>
    <path class="st0" d="M39.1,38.6c0,.1,0,.3-.1.4-.1.2-.3.3-.5.3H8.2c-1.9,0-3.6-.8-4.8-2.3-1.2-1.5-1.6-3.3-1.3-5.2l2.4-11.7c0-.2.2-.4.4-.5.1-.1.3-.1.4,0,.1,0,.3.1.4.2s.2.4.1.6l-2.4,11.8c-.3,1.4.1,2.9,1,4s2.3,1.8,3.8,1.8h30.3c.2,0,.4.1.5.3.1.1.1.2.1.3Z"/>
    <path class="st1" d="M72.1,20.9l-2.8,13.4c-.6,2.7-3,4.7-5.8,4.7h-24.5c.1-.1.1-.2.1-.4s0-.3-.1-.4h24.5c2.4,0,4.5-1.7,5-4.1l2.8-13.4c.1.1.2.2.4.2h.1c.1.1.2.1.3,0Z"/>
    <path class="st0" d="M74.8,8.8l-2.4,11.7c0,.2-.2.4-.4.5h-.3c-.1,0-.3-.1-.4-.2s-.2-.4-.1-.6l2.4-11.7c.3-1.4-.1-2.9-1-4s-2.3-1.8-3.7-1.8h-30.4c-.2,0-.4-.1-.5-.3-.1-.1-.1-.2-.1-.4s0-.3.1-.4c.1-.2.3-.3.5-.3h30.3c1.9,0,3.6.8,4.8,2.3,1.2,1.5,1.6,3.3,1.2,5.2Z"/>
  </g>
</svg>